<?xml version="1.0" encoding="UTF-8" standalone="no"?>
<!-- Created with Inkscape (http://www.inkscape.org/) -->

<svg
   version="1.1"
   id="svg2"
   width="2666.6667"
   height="2666.6667"
   viewBox="0 0 2666.6667 2666.6667"
   sodipodi:docname="FO3B4133AF41-am-dd.ai"
   xmlns:inkscape="http://www.inkscape.org/namespaces/inkscape"
   xmlns:sodipodi="http://sodipodi.sourceforge.net/DTD/sodipodi-0.dtd"
   xmlns="http://www.w3.org/2000/svg"
   xmlns:svg="http://www.w3.org/2000/svg">
  <defs
     id="defs6">
    <linearGradient
       x1="0"
       y1="0"
       x2="1"
       y2="0"
       gradientUnits="userSpaceOnUse"
       gradientTransform="matrix(0,-473.49057,-473.49057,0,1017.5062,1329.2858)"
       spreadMethod="pad"
       id="linearGradient26">
      <stop
         style="stop-opacity:1;stop-color:#f39200"
         offset="0"
         id="stop22" />
      <stop
         style="stop-opacity:1;stop-color:#e94e1b"
         offset="1"
         id="stop24" />
    </linearGradient>
    <linearGradient
       x1="0"
       y1="0"
       x2="1"
       y2="0"
       gradientUnits="userSpaceOnUse"
       gradientTransform="matrix(0,-473.49057,-473.49057,0,1000,1329.2858)"
       spreadMethod="pad"
       id="linearGradient46">
      <stop
         style="stop-opacity:1;stop-color:#f39200"
         offset="0"
         id="stop42" />
      <stop
         style="stop-opacity:1;stop-color:#e94e1b"
         offset="1"
         id="stop44" />
    </linearGradient>
    <linearGradient
       x1="0"
       y1="0"
       x2="1"
       y2="0"
       gradientUnits="userSpaceOnUse"
       gradientTransform="matrix(0,-473.49057,-473.49057,0,1000,1329.2858)"
       spreadMethod="pad"
       id="linearGradient66">
      <stop
         style="stop-opacity:1;stop-color:#f39200"
         offset="0"
         id="stop62" />
      <stop
         style="stop-opacity:1;stop-color:#e94e1b"
         offset="1"
         id="stop64" />
    </linearGradient>
    <linearGradient
       x1="0"
       y1="0"
       x2="1"
       y2="0"
       gradientUnits="userSpaceOnUse"
       gradientTransform="matrix(0,-473.49057,-473.49057,0,856.67993,1329.2858)"
       spreadMethod="pad"
       id="linearGradient86">
      <stop
         style="stop-opacity:1;stop-color:#f39200"
         offset="0"
         id="stop82" />
      <stop
         style="stop-opacity:1;stop-color:#e94e1b"
         offset="1"
         id="stop84" />
    </linearGradient>
    <linearGradient
       x1="0"
       y1="0"
       x2="1"
       y2="0"
       gradientUnits="userSpaceOnUse"
       gradientTransform="matrix(0,-473.49057,-473.49057,0,918.43927,1329.2858)"
       spreadMethod="pad"
       id="linearGradient106">
      <stop
         style="stop-opacity:1;stop-color:#f39200"
         offset="0"
         id="stop102" />
      <stop
         style="stop-opacity:1;stop-color:#e94e1b"
         offset="1"
         id="stop104" />
    </linearGradient>
    <linearGradient
       x1="0"
       y1="0"
       x2="1"
       y2="0"
       gradientUnits="userSpaceOnUse"
       gradientTransform="matrix(0,-473.49057,-473.49057,0,813.83276,1329.2858)"
       spreadMethod="pad"
       id="linearGradient126">
      <stop
         style="stop-opacity:1;stop-color:#f39200"
         offset="0"
         id="stop122" />
      <stop
         style="stop-opacity:1;stop-color:#e94e1b"
         offset="1"
         id="stop124" />
    </linearGradient>
    <linearGradient
       x1="0"
       y1="0"
       x2="1"
       y2="0"
       gradientUnits="userSpaceOnUse"
       gradientTransform="matrix(0,-473.49057,-473.49057,0,1081.5608,1329.2858)"
       spreadMethod="pad"
       id="linearGradient146">
      <stop
         style="stop-opacity:1;stop-color:#f39200"
         offset="0"
         id="stop142" />
      <stop
         style="stop-opacity:1;stop-color:#e94e1b"
         offset="1"
         id="stop144" />
    </linearGradient>
    <linearGradient
       x1="0"
       y1="0"
       x2="1"
       y2="0"
       gradientUnits="userSpaceOnUse"
       gradientTransform="matrix(0,-473.49057,-473.49057,0,1186.1672,1329.2858)"
       spreadMethod="pad"
       id="linearGradient166">
      <stop
         style="stop-opacity:1;stop-color:#f39200"
         offset="0"
         id="stop162" />
      <stop
         style="stop-opacity:1;stop-color:#e94e1b"
         offset="1"
         id="stop164" />
    </linearGradient>
    <linearGradient
       x1="0"
       y1="0"
       x2="1"
       y2="0"
       gradientUnits="userSpaceOnUse"
       gradientTransform="matrix(0,-473.49057,-473.49057,0,1000,1329.2858)"
       spreadMethod="pad"
       id="linearGradient186">
      <stop
         style="stop-opacity:1;stop-color:#f39200"
         offset="0"
         id="stop182" />
      <stop
         style="stop-opacity:1;stop-color:#e94e1b"
         offset="1"
         id="stop184" />
    </linearGradient>
    <linearGradient
       x1="0"
       y1="0"
       x2="1"
       y2="0"
       gradientUnits="userSpaceOnUse"
       gradientTransform="matrix(0,-473.49057,-473.49057,0,827.89716,1329.2858)"
       spreadMethod="pad"
       id="linearGradient206">
      <stop
         style="stop-opacity:1;stop-color:#f39200"
         offset="0"
         id="stop202" />
      <stop
         style="stop-opacity:1;stop-color:#e94e1b"
         offset="1"
         id="stop204" />
    </linearGradient>
    <linearGradient
       x1="0"
       y1="0"
       x2="1"
       y2="0"
       gradientUnits="userSpaceOnUse"
       gradientTransform="matrix(0,-473.49057,-473.49057,0,1143.3201,1329.2858)"
       spreadMethod="pad"
       id="linearGradient226">
      <stop
         style="stop-opacity:1;stop-color:#f39200"
         offset="0"
         id="stop222" />
      <stop
         style="stop-opacity:1;stop-color:#e94e1b"
         offset="1"
         id="stop224" />
    </linearGradient>
    <clipPath
       clipPathUnits="userSpaceOnUse"
       id="clipPath236">
      <path
         d="M 0,2000 H 2000 V 0 H 0 Z"
         id="path234" />
    </clipPath>
  </defs>
  <sodipodi:namedview
     id="namedview4"
     pagecolor="#ffffff"
     bordercolor="#000000"
     borderopacity="0.25"
     inkscape:showpageshadow="2"
     inkscape:pageopacity="0.0"
     inkscape:pagecheckerboard="0"
     inkscape:deskcolor="#d1d1d1" />
  <g
     id="g8"
     inkscape:groupmode="layer"
     inkscape:label="FO3B4133AF41-am-dd"
     transform="matrix(1.3333333,0,0,-1.3333333,0,2666.6667)">
    <g
       id="g10">
      <g
         id="g12">
        <g
           id="g18">
          <g
             id="g20">
            <path
               d="m 1032.51,1147.337 c -2.4,-3.622 -1.409,-8.503 2.213,-10.903 v 0 c 17.687,-11.716 28.245,-31.356 28.245,-52.538 v 0 c 0,-34.721 -28.247,-62.968 -62.968,-62.968 v 0 c -11.217,0 -22.227,2.984 -31.838,8.628 v 0 c -3.746,2.2 -8.567,0.947 -10.766,-2.799 v 0 c -2.201,-3.746 -0.947,-8.567 2.8,-10.768 v 0 c 12.024,-7.061 25.788,-10.794 39.804,-10.794 v 0 c 43.396,0 78.701,35.305 78.701,78.701 v 0 c 0,26.473 -13.192,51.017 -35.289,65.654 v 0 c -1.337,0.886 -2.845,1.31 -4.337,1.31 v 0 c -2.55,0 -5.052,-1.238 -6.565,-3.523"
               style="fill:url(#linearGradient26);stroke:none"
               id="path28" />
          </g>
        </g>
      </g>
    </g>
    <g
       id="g30">
      <g
         id="g32">
        <g
           id="g38">
          <g
             id="g40">
            <path
               d="m 865.461,1083.896 c 0,-35.937 13.995,-69.723 39.405,-95.134 v 0 c 25.412,-25.411 59.198,-39.406 95.134,-39.406 v 0 c 35.937,0 69.722,13.995 95.133,39.406 v 0 c 25.411,25.411 39.406,59.197 39.406,95.134 v 0 c 0,74.185 -60.354,134.539 -134.539,134.539 v 0 c -74.185,0 -134.539,-60.354 -134.539,-134.539 m 15.733,0 c 0,65.509 53.296,118.806 118.806,118.806 v 0 c 65.51,0 118.806,-53.297 118.806,-118.806 v 0 c 0,-65.51 -53.296,-118.806 -118.806,-118.806 v 0 c -65.51,0 -118.806,53.296 -118.806,118.806"
               style="fill:url(#linearGradient46);stroke:none"
               id="path48" />
          </g>
        </g>
      </g>
    </g>
    <g
       id="g50">
      <g
         id="g52">
        <g
           id="g58">
          <g
             id="g60">
            <path
               d="m 992.133,1323.846 v -74.53 c 0,-4.345 3.523,-7.866 7.867,-7.866 v 0 c 4.344,0 7.867,3.521 7.867,7.866 v 0 74.53 c 0,4.345 -3.523,7.866 -7.867,7.866 v 0 c -4.344,0 -7.867,-3.521 -7.867,-7.866"
               style="fill:url(#linearGradient66);stroke:none"
               id="path68" />
          </g>
        </g>
      </g>
    </g>
    <g
       id="g70">
      <g
         id="g72">
        <g
           id="g78">
          <g
             id="g80">
            <path
               d="m 824.767,1259.129 c -3.072,-3.073 -3.072,-8.053 0,-11.125 v 0 l 52.701,-52.701 c 1.536,-1.536 3.549,-2.304 5.563,-2.304 v 0 c 2.013,0 4.025,0.768 5.561,2.304 v 0 c 3.072,3.072 3.072,8.053 0,11.125 v 0 l -52.7,52.701 c -1.536,1.536 -3.55,2.304 -5.563,2.304 v 0 c -2.013,0 -4.026,-0.768 -5.562,-2.304"
               style="fill:url(#linearGradient86);stroke:none"
               id="path88" />
          </g>
        </g>
      </g>
    </g>
    <g
       id="g90">
      <g
         id="g92">
        <g
           id="g98">
          <g
             id="g100">
            <path
               d="m 900.278,1310.764 c -3.977,-1.749 -5.784,-6.39 -4.036,-10.368 v 0 l 29.991,-68.229 c 1.296,-2.948 4.18,-4.703 7.206,-4.703 v 0 c 1.057,0 2.132,0.213 3.161,0.666 v 0 c 3.977,1.749 5.785,6.39 4.036,10.367 v 0 l -29.991,68.23 c -1.295,2.948 -4.18,4.703 -7.206,4.703 v 0 c -1.057,0 -2.131,-0.214 -3.161,-0.666"
               style="fill:url(#linearGradient106);stroke:none"
               id="path108" />
          </g>
        </g>
      </g>
    </g>
    <g
       id="g110">
      <g
         id="g112">
        <g
           id="g118">
          <g
             id="g120">
            <path
               d="m 772.379,1181.885 c -1.717,-3.99 0.124,-8.618 4.115,-10.336 v 0 l 68.457,-29.47 c 1.013,-0.436 2.068,-0.643 3.106,-0.643 v 0 c 3.047,0 5.948,1.782 7.229,4.758 v 0 c 1.718,3.991 -0.124,8.618 -4.115,10.337 v 0 L 782.716,1186 c -1.015,0.437 -2.07,0.643 -3.108,0.643 v 0 c -3.048,0 -5.948,-1.781 -7.229,-4.758"
               style="fill:url(#linearGradient126);stroke:none"
               id="path128" />
          </g>
        </g>
      </g>
    </g>
    <g
       id="g130">
      <g
         id="g132">
        <g
           id="g138">
          <g
             id="g140">
            <path
               d="m 1089.355,1306.727 -29.991,-68.23 c -1.748,-3.977 0.058,-8.618 4.035,-10.367 v 0 c 1.031,-0.453 2.105,-0.666 3.162,-0.666 v 0 c 3.025,0 5.91,1.755 7.206,4.703 v 0 l 29.991,68.229 c 1.748,3.978 -0.059,8.619 -4.036,10.368 v 0 c -1.03,0.452 -2.104,0.666 -3.161,0.666 v 0 c -3.025,0 -5.91,-1.756 -7.206,-4.703"
               style="fill:url(#linearGradient146);stroke:none"
               id="path148" />
          </g>
        </g>
      </g>
    </g>
    <g
       id="g150">
      <g
         id="g152">
        <g
           id="g158">
          <g
             id="g160">
            <path
               d="m 1217.284,1186 -68.456,-29.469 c -3.99,-1.719 -5.832,-6.346 -4.114,-10.337 v 0 c 1.281,-2.977 4.182,-4.758 7.228,-4.758 v 0 c 1.039,0 2.094,0.207 3.108,0.643 v 0 l 68.456,29.47 c 3.99,1.718 5.832,6.346 4.115,10.336 v 0 c -1.282,2.977 -4.183,4.758 -7.23,4.758 v 0 c -1.038,0 -2.093,-0.207 -3.107,-0.643"
               style="fill:url(#linearGradient166);stroke:none"
               id="path168" />
          </g>
        </g>
      </g>
    </g>
    <g
       id="g170">
      <g
         id="g172">
        <g
           id="g178">
          <g
             id="g180">
            <path
               d="m 1168.298,1097.067 c -4.345,0 -7.867,-3.523 -7.867,-7.867 v 0 c 0,-4.345 3.522,-7.867 7.867,-7.867 v 0 h 67.96 V 948.334 c 0,-25.065 -20.393,-45.457 -45.459,-45.457 v 0 H 809.201 c -25.066,0 -45.459,20.392 -45.459,45.457 v 0 132.999 h 67.96 c 4.345,0 7.867,3.522 7.867,7.867 v 0 c 0,4.344 -3.522,7.867 -7.867,7.867 v 0 h -75.826 c -4.345,0 -7.867,-3.523 -7.867,-7.867 v 0 -140.866 c 0,-33.74 27.451,-61.191 61.192,-61.191 v 0 h 381.598 c 33.742,0 61.192,27.451 61.192,61.191 v 0 140.866 c 0,4.344 -3.523,7.867 -7.866,7.867 v 0 z"
               style="fill:url(#linearGradient186);stroke:none"
               id="path188" />
          </g>
        </g>
      </g>
    </g>
    <g
       id="g190">
      <g
         id="g192">
        <g
           id="g198">
          <g
             id="g200">
            <path
               d="m 797.359,984.772 c 0,-29.34 23.87,-53.211 53.209,-53.211 v 0 c 4.346,0 7.867,3.522 7.867,7.867 v 0 c 0,4.343 -3.521,7.866 -7.867,7.866 v 0 c -20.664,0 -37.477,16.812 -37.477,37.478 v 0 c 0,4.344 -3.521,7.867 -7.866,7.867 v 0 c -4.344,0 -7.866,-3.523 -7.866,-7.867"
               style="fill:url(#linearGradient206);stroke:none"
               id="path208" />
          </g>
        </g>
      </g>
    </g>
    <g
       id="g210">
      <g
         id="g212">
        <g
           id="g218">
          <g
             id="g220">
            <path
               d="m 1164.108,1259.129 -52.701,-52.701 c -3.071,-3.072 -3.071,-8.053 0,-11.125 v 0 c 1.537,-1.536 3.55,-2.304 5.562,-2.304 v 0 c 2.014,0 4.027,0.768 5.563,2.304 v 0 l 52.701,52.701 c 3.071,3.072 3.071,8.052 0,11.125 v 0 c -1.536,1.536 -3.549,2.304 -5.563,2.304 v 0 c -2.013,0 -4.026,-0.768 -5.562,-2.304"
               style="fill:url(#linearGradient226);stroke:none"
               id="path228" />
          </g>
        </g>
      </g>
    </g>
    <g
       id="g230">
      <g
         id="g232"
         clip-path="url(#clipPath236)">
        <g
           id="g238"
           transform="translate(670.5908,672.915)">
          <path
             d="m 0,0 c -6.346,2.852 -11.322,6.811 -14.93,11.874 -3.609,5.063 -5.472,10.913 -5.587,17.549 H -3.58 c 0.581,-5.705 2.939,-10.507 7.073,-14.406 4.13,-3.902 10.154,-5.85 18.072,-5.85 7.566,0 13.533,1.892 17.898,5.675 4.366,3.782 6.548,8.643 6.548,14.581 0,4.654 -1.282,8.439 -3.842,11.349 -2.561,2.909 -5.761,5.122 -9.603,6.636 -3.842,1.511 -9.023,3.144 -15.541,4.889 -8.032,2.096 -14.466,4.191 -19.295,6.286 -4.832,2.096 -8.965,5.384 -12.397,9.866 -3.436,4.48 -5.151,10.504 -5.151,18.072 0,6.636 1.686,12.513 5.063,17.637 3.375,5.12 8.12,9.08 14.231,11.874 6.111,2.793 13.124,4.19 21.041,4.19 11.408,0 20.75,-2.853 28.026,-8.556 7.274,-5.704 11.377,-13.27 12.311,-22.699 H 43.392 c -0.584,4.654 -3.028,8.757 -7.334,12.309 -4.308,3.55 -10.013,5.327 -17.112,5.327 -6.635,0 -12.049,-1.719 -16.239,-5.152 -4.191,-3.434 -6.287,-8.236 -6.287,-14.405 0,-4.426 1.25,-8.033 3.755,-10.826 2.501,-2.794 5.588,-4.92 9.255,-6.374 3.667,-1.457 8.818,-3.116 15.453,-4.977 8.032,-2.213 14.493,-4.394 19.382,-6.548 4.889,-2.155 9.08,-5.473 12.572,-9.953 3.493,-4.482 5.239,-10.563 5.239,-18.247 0,-5.937 -1.572,-11.524 -4.715,-16.763 C 54.218,8.119 49.561,3.869 43.392,0.611 37.221,-2.649 29.947,-4.277 21.565,-4.277 13.533,-4.277 6.343,-2.854 0,0"
             style="fill:#1d1d1b;fill-opacity:1;fill-rule:nonzero;stroke:none"
             id="path240" />
        </g>
        <g
           id="g242"
           transform="translate(840.9263,765.5488)">
          <path
             d="m 0,0 v -95.689 h -15.89 v 14.143 c -3.028,-4.889 -7.247,-8.703 -12.66,-11.437 -5.413,-2.734 -11.38,-4.103 -17.898,-4.103 -7.451,0 -14.144,1.541 -20.081,4.626 -5.937,3.084 -10.624,7.711 -14.056,13.883 -3.435,6.169 -5.151,13.678 -5.151,22.525 V 0 h 15.715 v -53.956 c 0,-9.43 2.385,-16.676 7.159,-21.74 4.773,-5.064 11.29,-7.596 19.557,-7.596 8.496,0 15.192,2.619 20.081,7.858 4.89,5.238 7.334,12.862 7.334,22.874 l 0,52.56 z"
             style="fill:#1d1d1b;fill-opacity:1;fill-rule:nonzero;stroke:none"
             id="path244" />
        </g>
        <g
           id="g246"
           transform="translate(942.7266,756.7305)">
          <path
             d="M 0,0 C 7.216,-7.045 10.826,-17.199 10.826,-30.47 V -86.871 H -4.889 v 54.131 c 0,9.544 -2.388,16.849 -7.159,21.914 -4.775,5.063 -11.293,7.596 -19.557,7.596 -8.382,0 -15.047,-2.62 -19.994,-7.859 -4.949,-5.237 -7.421,-12.864 -7.421,-22.874 V -86.871 H -74.91 V 8.818 h 15.89 V -4.803 c 3.144,4.89 7.421,8.672 12.834,11.351 5.414,2.677 11.377,4.016 17.898,4.016 C -16.648,10.564 -7.219,7.041 0,0"
             style="fill:#1d1d1b;fill-opacity:1;fill-rule:nonzero;stroke:none"
             id="path248" />
        </g>
        <g
           id="g250"
           transform="translate(996.5952,672.915)">
          <path
             d="m 0,0 c -6.346,2.852 -11.322,6.811 -14.93,11.874 -3.609,5.063 -5.473,10.913 -5.587,17.549 H -3.58 c 0.581,-5.705 2.939,-10.507 7.073,-14.406 4.13,-3.902 10.154,-5.85 18.072,-5.85 7.566,0 13.533,1.892 17.898,5.675 4.366,3.782 6.548,8.643 6.548,14.581 0,4.654 -1.282,8.439 -3.842,11.349 -2.561,2.909 -5.761,5.122 -9.604,6.636 -3.841,1.511 -9.022,3.144 -15.54,4.889 -8.032,2.096 -14.466,4.191 -19.295,6.286 -4.832,2.096 -8.965,5.384 -12.397,9.866 -3.436,4.48 -5.152,10.504 -5.152,18.072 0,6.636 1.687,12.513 5.064,17.637 3.375,5.12 8.12,9.08 14.231,11.874 6.111,2.793 13.124,4.19 21.041,4.19 11.407,0 20.75,-2.853 28.026,-8.556 7.274,-5.704 11.377,-13.27 12.311,-22.699 H 43.392 c -0.584,4.654 -3.028,8.757 -7.334,12.309 -4.308,3.55 -10.013,5.327 -17.112,5.327 -6.635,0 -12.049,-1.719 -16.239,-5.152 -4.191,-3.434 -6.287,-8.236 -6.287,-14.405 0,-4.426 1.25,-8.033 3.755,-10.826 2.501,-2.794 5.588,-4.92 9.255,-6.374 3.666,-1.457 8.818,-3.116 15.453,-4.977 8.032,-2.213 14.493,-4.394 19.382,-6.548 4.889,-2.155 9.08,-5.473 12.572,-9.953 3.493,-4.482 5.239,-10.563 5.239,-18.247 0,-5.937 -1.572,-11.524 -4.715,-16.763 C 54.218,8.119 49.561,3.869 43.392,0.611 37.22,-2.649 29.947,-4.277 21.565,-4.277 13.533,-4.277 6.343,-2.854 0,0"
             style="fill:#1d1d1b;fill-opacity:1;fill-rule:nonzero;stroke:none"
             id="path252" />
        </g>
        <g
           id="g254"
           transform="translate(1149.1196,762.667)">
          <path
             d="m 0,0 c 5.82,-3.086 10.39,-7.713 13.707,-13.882 3.318,-6.172 4.977,-13.68 4.977,-22.524 V -92.808 H 2.968 v 54.131 c 0,9.544 -2.387,16.85 -7.158,21.914 -4.775,5.064 -11.293,7.596 -19.558,7.596 -8.381,0 -15.046,-2.619 -19.993,-7.858 -4.949,-5.238 -7.421,-12.865 -7.421,-22.874 v -52.909 h -15.89 V 36.407 h 15.89 v -47.146 c 3.143,4.889 7.478,8.672 13.009,11.35 5.527,2.677 11.726,4.017 18.596,4.017 C -12.34,4.628 -5.822,3.083 0,0"
             style="fill:#1d1d1b;fill-opacity:1;fill-rule:nonzero;stroke:none"
             id="path256" />
        </g>
        <g
           id="g258"
           transform="translate(1251.6182,686.2734)">
          <path
             d="m 0,0 c 5.004,2.676 9.05,6.692 12.136,12.049 3.083,5.352 4.627,11.873 4.627,19.556 0,7.683 -1.514,14.201 -4.54,19.557 -3.029,5.354 -6.985,9.342 -11.873,11.961 -4.89,2.619 -10.188,3.929 -15.891,3.929 -5.822,0 -11.148,-1.31 -15.977,-3.929 -4.832,-2.619 -8.703,-6.607 -11.612,-11.961 -2.911,-5.356 -4.365,-11.874 -4.365,-19.557 0,-7.8 1.424,-14.378 4.278,-19.732 2.851,-5.355 6.663,-9.342 11.437,-11.96 4.772,-2.62 10.01,-3.93 15.716,-3.93 5.702,0 11.057,1.337 16.064,4.017 m -40.423,-11.874 c -7.277,4.073 -12.982,9.865 -17.113,17.374 -4.133,7.509 -6.198,16.21 -6.198,26.105 0,9.779 2.122,18.421 6.373,25.93 4.248,7.508 10.04,13.272 17.374,17.287 7.334,4.016 15.541,6.024 24.621,6.024 9.08,0 17.287,-2.008 24.621,-6.024 7.334,-4.015 13.123,-9.751 17.374,-17.2 4.247,-7.451 6.373,-16.124 6.373,-26.017 C 33.002,21.71 30.819,13.009 26.455,5.5 22.089,-2.009 16.179,-7.801 8.731,-11.874 1.28,-15.95 -6.984,-17.986 -16.064,-17.986 c -8.966,0 -17.085,2.036 -24.359,6.112"
             style="fill:#1d1d1b;fill-opacity:1;fill-rule:nonzero;stroke:none"
             id="path260" />
        </g>
        <g
           id="g262"
           transform="translate(1324.9565,752.4521)">
          <path
             d="m 0,0 v -56.4 c 0,-4.658 0.988,-7.946 2.969,-9.866 1.977,-1.922 5.412,-2.881 10.302,-2.881 H 24.97 V -82.593 H 10.651 c -8.847,0 -15.483,2.035 -19.905,6.112 -4.426,4.074 -6.636,10.765 -6.636,20.081 V 0 H -28.288 V 13.097 H -15.89 V 37.193 H 0 V 13.097 H 24.97 L 24.97,0 Z"
             style="fill:#1d1d1b;fill-opacity:1;fill-rule:nonzero;stroke:none"
             id="path264" />
        </g>
      </g>
    </g>
  </g>
</svg>
