<svg width="75" height="73" viewBox="0 0 75 73" fill="none" xmlns="http://www.w3.org/2000/svg">
<path fill-rule="evenodd" clip-rule="evenodd" d="M49.2188 28.125H55.0781V39.8438H49.2188V28.125Z" fill="#E43535"/>
<path fill-rule="evenodd" clip-rule="evenodd" d="M35.1562 1.76071C35.1562 0.788298 35.9365 0 36.9141 0C37.8849 0 38.6719 0.795168 38.6719 1.76071V56.25H35.1562V1.76071Z" fill="#D8D8D8"/>
<path d="M72.6562 4.6875H2.34375C1.04933 4.6875 0 5.73683 0 7.03125V8.20313C0 9.49754 1.04933 10.5469 2.34375 10.5469H72.6562C73.9507 10.5469 75 9.49754 75 8.20313V7.03125C75 5.73683 73.9507 4.6875 72.6562 4.6875Z" fill="#BD7575"/>
<path fill-rule="evenodd" clip-rule="evenodd" d="M3.51562 10.5469H70.3125V46.8775C70.3125 49.4649 68.2031 51.5625 65.6155 51.5625H8.21265C5.61856 51.5625 3.51562 49.4721 3.51562 46.8775V10.5469Z" fill="#B4DFFB"/>
<path d="M37.1768 55.0781L25.7812 63.5347" stroke="#D8D8D8" stroke-width="7.64993" stroke-linecap="round"/>
<path d="M36.3276 55.0781L47.7231 63.5347" stroke="#D8D8D8" stroke-width="7.64993" stroke-linecap="round"/>
<path fill-rule="evenodd" clip-rule="evenodd" d="M33.9844 64.406C33.9844 61.8156 36.0787 59.4746 38.63 59.1808L53.9063 57.4219L69.1825 59.1808C71.7482 59.4762 73.8281 61.8155 73.8281 64.406V72.6063H33.9844V64.406Z" fill="#D650C7"/>
<path fill-rule="evenodd" clip-rule="evenodd" d="M46.875 51.9333C43.3474 48.5982 41.0156 43.1971 41.0156 38.6719C41.0156 31.5526 46.787 25.7812 53.9062 25.7812C61.0255 25.7812 66.7969 31.5526 66.7969 38.6719C66.7969 43.1971 64.4651 48.5982 60.9375 51.9333V59.7656C60.9375 59.7656 56.171 61.4633 53.9062 61.4633C51.6415 61.4633 46.875 59.7656 46.875 59.7656V51.9333Z" fill="#FFDD95"/>
<path d="M43.3594 48.0469C45.301 48.0469 46.875 46.4729 46.875 44.5312C46.875 42.5896 45.301 41.0156 43.3594 41.0156C41.4177 41.0156 39.8438 42.5896 39.8438 44.5312C39.8438 46.4729 41.4177 48.0469 43.3594 48.0469Z" fill="#FFDD95"/>
<path d="M64.4531 48.0469C66.3948 48.0469 67.9688 46.4729 67.9688 44.5312C67.9688 42.5896 66.3948 41.0156 64.4531 41.0156C62.5115 41.0156 60.9375 42.5896 60.9375 44.5312C60.9375 46.4729 62.5115 48.0469 64.4531 48.0469Z" fill="#FFDD95"/>
<path d="M37.1055 19.0161L25.4957 25.5224L33.6414 30.088L13.668 41.2817" stroke="#5B68C0" stroke-width="7.64993" stroke-linecap="round" stroke-linejoin="round"/>
<path d="M32.832 16.5352L37.8254 18.7336L37.4152 23.9086" stroke="#5B68C0" stroke-width="7.64993" stroke-linecap="round" stroke-linejoin="round"/>
</svg>
