<svg width="85" height="85" viewBox="0 0 85 85" fill="none" xmlns="http://www.w3.org/2000/svg">
<circle cx="42.5" cy="42.5" r="42.5" fill="url(#paint0_radial_21_112)"/>
<path d="M45.9384 36.3778C45.6846 36.7609 45.7894 37.2772 46.1725 37.531C48.0432 38.7702 49.1599 40.8475 49.1599 43.0879C49.1599 46.7603 46.1723 49.748 42.4999 49.748C41.3134 49.748 40.1489 49.4324 39.1324 48.8354C38.7362 48.6027 38.2262 48.7353 37.9937 49.1315C37.7609 49.5277 37.8935 50.0376 38.2898 50.2704C39.5616 51.0172 41.0174 51.4121 42.4999 51.4121C47.0898 51.4121 50.824 47.6779 50.824 43.0879C50.824 40.2879 49.4287 37.6919 47.0915 36.1438C46.9501 36.05 46.7906 36.0052 46.6328 36.0052C46.3631 36.0052 46.0984 36.1361 45.9384 36.3778Z" fill="white"/>
<path d="M28.2698 43.0879C28.2698 46.889 29.75 50.4625 32.4376 53.1502C35.1254 55.8379 38.6989 57.3181 42.4999 57.3181C46.3009 57.3181 49.8743 55.8379 52.562 53.1502C55.2497 50.4625 56.7299 46.889 56.7299 43.0879C56.7299 35.2414 50.3464 28.8578 42.4999 28.8578C34.6534 28.8578 28.2698 35.2414 28.2698 43.0879ZM29.9338 43.0879C29.9338 36.1591 35.5709 30.5219 42.4999 30.5219C49.4288 30.5219 55.0659 36.1591 55.0659 43.0879C55.0659 50.0169 49.4288 55.6539 42.4999 55.6539C35.5709 55.6539 29.9338 50.0169 29.9338 43.0879Z" fill="white"/>
<path d="M41.6677 17.7086V25.5916C41.6677 26.0511 42.0403 26.4236 42.4998 26.4236C42.9593 26.4236 43.3319 26.0511 43.3319 25.5916V17.7086C43.3319 17.249 42.9593 16.8766 42.4998 16.8766C42.0403 16.8766 41.6677 17.249 41.6677 17.7086Z" fill="white"/>
<path d="M23.9656 24.5537C23.6407 24.8787 23.6407 25.4054 23.9656 25.7303L29.5398 31.3045C29.7022 31.4669 29.9151 31.5482 30.1282 31.5482C30.3411 31.5482 30.5539 31.4669 30.7163 31.3045C31.0413 30.9796 31.0413 30.4527 30.7163 30.1278L25.1423 24.5537C24.9798 24.3912 24.7668 24.31 24.5539 24.31C24.341 24.31 24.1281 24.3912 23.9656 24.5537Z" fill="white"/>
<path d="M31.9525 19.0923C31.5319 19.2773 31.3407 19.7681 31.5256 20.1889L34.6977 27.4054C34.8348 27.7172 35.1398 27.9028 35.4599 27.9028C35.5717 27.9028 35.6854 27.8803 35.7942 27.8324C36.2149 27.6474 36.4061 27.1565 36.2211 26.7359L33.049 19.5193C32.912 19.2074 32.6069 19.0218 32.2868 19.0218C32.175 19.0218 32.0614 19.0445 31.9525 19.0923Z" fill="white"/>
<path d="M18.4247 32.7237C18.2431 33.1457 18.4378 33.6352 18.8599 33.8169L26.1006 36.934C26.2077 36.9801 26.3193 37.002 26.4291 37.002C26.7514 37.002 27.0582 36.8135 27.1937 36.4987C27.3754 36.0766 27.1806 35.5872 26.7585 35.4054L19.518 32.2885C19.4107 32.2422 19.2991 32.2205 19.1893 32.2205C18.8669 32.2205 18.5602 32.4088 18.4247 32.7237Z" fill="white"/>
<path d="M51.9509 19.5193L48.7788 26.7359C48.5939 27.1565 48.7849 27.6474 49.2056 27.8324C49.3146 27.8803 49.4282 27.9028 49.54 27.9028C49.86 27.9028 50.1651 27.7172 50.3022 27.4054L53.4743 20.1889C53.6592 19.7681 53.4681 19.2773 53.0474 19.0923C52.9385 19.0445 52.8249 19.0218 52.7131 19.0218C52.3931 19.0218 52.088 19.2076 51.9509 19.5193Z" fill="white"/>
<path d="M65.4817 32.2885L58.2412 35.4054C57.8192 35.5872 57.6244 36.0766 57.8061 36.4987C57.9416 36.8136 58.2484 37.002 58.5706 37.002C58.6805 37.002 58.7921 36.9801 58.8993 36.934L66.1398 33.8169C66.5619 33.6352 66.7567 33.1457 66.5751 32.7237C66.4395 32.4088 66.1327 32.2205 65.8104 32.2205C65.7006 32.2205 65.589 32.2423 65.4817 32.2885Z" fill="white"/>
<path d="M60.3006 41.6948C59.841 41.6948 59.4685 42.0675 59.4685 42.5269C59.4685 42.9865 59.841 43.359 60.3006 43.359H67.4887V57.4262C67.4887 60.0773 65.3317 62.2342 62.6805 62.2342H22.3192C19.6679 62.2342 17.511 60.0773 17.511 57.4262V43.359H24.6991C25.1586 43.359 25.5312 42.9865 25.5312 42.5269C25.5312 42.0675 25.1586 41.6948 24.6991 41.6948H16.679C16.2194 41.6948 15.8469 42.0675 15.8469 42.5269V57.4262C15.8469 60.9949 18.7504 63.8983 22.3192 63.8983H62.6805C66.2494 63.8983 69.1527 60.9949 69.1527 57.4262V42.5269C69.1527 42.0675 68.7801 41.6948 68.3207 41.6948H60.3006Z" fill="white"/>
<path d="M21.0667 53.5722C21.0667 56.6755 23.5914 59.2003 26.6945 59.2003C27.1542 59.2003 27.5266 58.8278 27.5266 58.3682C27.5266 57.9088 27.1542 57.5362 26.6945 57.5362C24.5089 57.5362 22.7306 55.758 22.7306 53.5722C22.7306 53.1127 22.3582 52.7401 21.8986 52.7401C21.4392 52.7401 21.0667 53.1127 21.0667 53.5722Z" fill="white"/>
<path d="M59.8573 24.5537L54.2832 30.1278C53.9583 30.4527 53.9583 30.9796 54.2832 31.3045C54.4457 31.4669 54.6586 31.5482 54.8715 31.5482C55.0845 31.5482 55.2974 31.4669 55.4598 31.3045L61.034 25.7303C61.3588 25.4054 61.3588 24.8787 61.034 24.5537C60.8715 24.3912 60.6586 24.31 60.4456 24.31C60.2327 24.31 60.0198 24.3912 59.8573 24.5537Z" fill="white"/>
<defs>
<radialGradient id="paint0_radial_21_112" cx="0" cy="0" r="1" gradientUnits="userSpaceOnUse" gradientTransform="translate(15 70) rotate(-41.6933) scale(79.6822)">
<stop stop-color="#EB5719"/>
<stop offset="1" stop-color="#F38D03"/>
</radialGradient>
</defs>
</svg>
